<?xml version="1.0" encoding="iso-8859-1"?>
<!-- Generator: Adobe Illustrator 18.0.0, SVG Export Plug-In . SVG Version: 6.00 Build 0)  -->
<!DOCTYPE svg PUBLIC "-//W3C//DTD SVG 1.1//EN" "http://www.w3.org/Graphics/SVG/1.1/DTD/svg11.dtd">
<svg version="1.1" id="Capa_1" xmlns="http://www.w3.org/2000/svg" xmlns:xlink="http://www.w3.org/1999/xlink" x="0px" y="0px"
	 viewBox="0 0 292.715 292.715" style="enable-background:new 0 0 292.715 292.715;" xml:space="preserve">
<path d="M290.592,263.357L164.234,11.424c-3.392-6.763-10.311-11.033-17.877-11.033c-7.566,0-14.485,4.271-17.877,11.033
	L2.123,263.357c-3.11,6.2-2.785,13.568,0.857,19.471c3.643,5.902,10.084,9.496,17.02,9.496h252.715
	c6.936,0,13.377-3.594,17.02-9.496C293.377,276.925,293.702,269.557,290.592,263.357z M146.357,65.002l41.809,83.359h-83.618
	L146.357,65.002z M52.405,252.324l32.081-63.963h123.743l32.081,63.963H52.405z"/>
<g>
</g>
<g>
</g>
<g>
</g>
<g>
</g>
<g>
</g>
<g>
</g>
<g>
</g>
<g>
</g>
<g>
</g>
<g>
</g>
<g>
</g>
<g>
</g>
<g>
</g>
<g>
</g>
<g>
</g>
</svg>
