<svg height="512" viewBox="0 0 48 60" width="512" xmlns="http://www.w3.org/2000/svg"><g id="025---Hypnotherapy" transform="translate(0 -1)"><path id="Shape" d="m35.941 23.564c.199432-.2681845.4959153-.4476538.826-.5l8.633-.024c1.4386346-.0038612 2.6022125-1.1723619 2.6-2.611v-13.76c.0022118-1.43847527-1.1615268-2.60668978-2.6-2.61l-6.383.006c-1.2087143-.03739718-2.3702503-.47772489-3.3-1.251-1.5366226-1.2632333-3.4893326-1.90759907-5.476-1.807h-7.787c-1.9018083.01376017-3.446268 1.54047764-3.482 3.442v1.791l-5.754 2.141c-1.1751944.44428764-2.0129345 1.49618448-2.1829571 2.741-.1700225 1.2448155.35495 2.4828378 1.3679571 3.226-.9221956.7312647-1.4022578 1.8862856-1.2700769 3.0557817.1321809 1.169496.8579294 2.1882316 1.9200769 2.6952183-.6352956 1.3078169-.3661526 2.8750949.6690535 3.8960426 1.035206 1.0209476 2.6060659 1.2683292 3.9049465.6149574-.001541 1.4233452.8877377 2.6955132 2.225 3.183 1.1157554.3625527 2.3358875.197292 3.315-.449l-3.338 10.007c-6.2212608-1.4791009-12.50243558 2.2096354-14.24116255 8.3633866-1.73872697 6.1537511 1.68332306 12.5841093 7.75873495 14.5794025 6.0754119 1.9952932 12.643637-1.1540483 14.891985-7.1404292s-.6227426-12.6809139-6.5095574-15.1783599l3.9-11.679c1.751-.116 4.132-.417 5.856-.632.937-.113 3.24-.54 4.456-2.1zm-8.941 25.436c0 5.5228475-4.4771525 10-10 10s-10-4.4771525-10-10 4.4771525-10 10-10c5.5203344.0060624 9.9939376 4.4796656 10 10zm-12.191-30.6c-.4148015.0875588-.8469802-.0163059-1.1766946-.2827927s-.5219151-.6672676-.5233054-1.0912073c-.0000009-.5514857.3171212-1.0538226.815-1.291 3.685-1.723 4.079-1.9 5.06-2.365.0315553.9691789.4754355 1.8787696 1.22 2.5zm-.9-8.139 5.062-1.883v2.789c-1.3206007.6841719-2.6911997 1.2671779-4.1 1.744-.3493658.1327904-.7378669.1167434-1.0750915-.0444065s-.5937611-.4533478-.7099085-.8085935c-.1296857-.3480891-.1157183-.7334483.0388273-1.0712353.1545455-.3377871.4369984-.6003078.7851727-.7297647zm2.777 12.585c-.335551.1565159-.7198252.1720533-1.066917.0431388-.3470918-.1289144-.6280563-.3915302-.780083-.7291388-.1617338-.3479246-.1753565-.7465875-.0377502-1.1047409s.4146608-.6451349.7677502-.7952591c8.831-4.01 8.75-4.44 9.692-4.094.5315144.2032193.8913315.7029834.9154548 1.2715111.0241233.5685276-.2920655 1.0969755-.8044548 1.3444889zm4.914 3.024c-.3355686.1561338-.7196936.1713559-1.066565.0422656s-.6275861-.3917364-.779435-.7292656c-.3268366-.7061357-.0268101-1.543895.674-1.882 8.525-3.99 7.956-3.746 8.343-3.746.6561722.0154191 1.2164088.478237 1.3553939 1.1197063.138985.6414694-.1794485 1.2946657-.7703939 1.5802937zm12.783-3.555c-.877 1.053-2.408 1.273-3.631 1.425 1.3174469-.9611961 1.7771459-2.7164105 1.1-4.2-.6450115-1.4062312-2.1624496-2.195019-3.684-1.915.0939491-1.5994216-.9650725-3.0387664-2.52-3.425.512-1.155.38-1.74.38-5.7h1.43c.5269299 1.27084738 1.4468114 2.3396622 2.625 3.05.4580764.3066017 1.0778764.1847076 1.3857314-.2725274.3078551-.457235.1876588-1.0773665-.2687314-1.3864726-1.852-1.246-1.95-2.375-1.952-2.391 0-.55228475-.4477153-1-1-1h-2.22v-.22c0-.55228475-.4477153-1-1-1s-1 .44771525-1 1v6.17c.0628108 1.1101549-.7795984 2.0640528-1.889 2.139-.6941627-.0563941-1.2141486-.6601481-1.167-1.355v-8.785c.0308581-.798768.6826868-1.43300347 1.482-1.442h7.852c1.4498177-.07664053 2.8792384.36779225 4.03 1.253 1.3033269 1.12996621 2.9604566 1.76911954 4.685 1.807l6.379-.008c.3327538.00599127.5995092.27719266.6.61v13.76c-.0004801.3329779-.2670858.6044714-.6.611-9.635 0-8.53-.021-8.955.047-.8194057.1327166-1.5578441.5716335-2.066 1.228z"/><path id="Shape" d="m10.424 35.519c.4970563-.2421769.7036769-.8414437.4615-1.3385s-.8414437-.7036769-1.3385-.4615c-8.43095056 4.1237685-11.93212471 14.2944423-7.826 22.734.24217686.4970563.84144373.7036769 1.3385.4615s.70367686-.8414437.4615-1.3385c-3.6222011-7.4454193-.53416022-16.4178713 6.903-20.057z"/><path id="Shape" d="m27.936 60.725c.1929119.1821381.4502963.2801501.7154946.2724605s.5164712-.1204506.6985054-.3134605c4.8410073-5.1589399 6.0053427-12.7662757 2.929-19.137-.156661-.321539-.4729607-.5350758-.8297521-.5601729-.3567915-.0250972-.6998696.1420581-.9000001.4385s-.2269088.6771339-.0702478.9986729c2.7171501 5.6204116 1.6918735 12.3338066-2.579 16.887-.1827771.1922605-.2816723.4492672-.2749206.7144577.0067516.2651905.1185968.5168317.3109206.6995423z"/><path id="Shape" d="m13 49c0 2.209139 1.790861 4 4 4s4-1.790861 4-4-1.790861-4-4-4-4 1.790861-4 4zm6 0c0 1.1045695-.8954305 2-2 2s-2-.8954305-2-2 .8954305-2 2-2 2 .8954305 2 2z"/></g></svg>