<svg id="Layer_1" enable-background="new 0 0 512 512" height="512" viewBox="0 0 512 512" width="512" xmlns="http://www.w3.org/2000/svg"><g id="XMLID_1039_"><g id="XMLID_458_"><path id="XMLID_461_" d="m510.66 464.042-89.686-155.341c8.717-9.937 16.568-20.65 23.386-32.037 1.894-3.163 1.894-7.11 0-10.273-19.143-31.974-46.297-58.748-78.528-77.426-6.452-3.739-13.084-7.131-19.863-10.177l-81.309-140.831c-1.786-3.094-5.088-5-8.66-5s-6.874 1.906-8.66 5l-81.309 140.832c-6.779 3.046-13.411 6.438-19.863 10.177-32.231 18.678-59.386 45.452-78.528 77.426-1.894 3.163-1.894 7.111 0 10.273 6.817 11.387 14.668 22.1 23.386 32.037l-89.686 155.34c-1.786 3.094-1.786 6.906 0 10s5.088 5 8.66 5h201.318c5.522 0 10-4.477 10-10s-4.478-10-10-10h-183.998l78.149-135.359c12.325 11.636 25.974 21.875 40.698 30.408 33.233 19.258 71.213 29.437 109.833 29.437s76.6-10.179 109.832-29.438c14.724-8.533 28.373-18.772 40.698-30.407l78.149 135.359h-183.361c-5.522 0-10 4.477-10 10s4.478 10 10 10h200.682c3.572 0 6.874-1.906 8.66-5s1.786-6.906 0-10zm-254.993-103.847c-49.075 0-89-39.925-89-89s39.925-89 89-89 89 39.925 89 89-39.925 89-89 89zm.333-297.238 60.686 105.111c-19.63-5.636-40.066-8.54-60.686-8.54s-41.056 2.904-60.686 8.54zm-168.018 208.571c21.606-33.699 52.802-59.747 88.716-75.39-18.6 19.56-30.031 45.998-30.031 75.057 0 29.627 11.887 56.526 31.135 76.192-36.377-15.587-67.994-41.815-89.82-75.859zm245.095 76.325c19.517-19.706 31.59-46.797 31.59-76.658 0-29.298-11.622-55.929-30.494-75.536 36.387 15.586 68.013 41.818 89.844 75.869-6.609 10.308-14.125 19.888-22.389 28.686-.234.231-.456.47-.664.72-19.177 20.219-42.383 36.172-67.887 46.919z"/><path id="XMLID_467_" d="m255.667 225.195c-25.364 0-46 20.636-46 46s20.636 46 46 46 46-20.636 46-46-20.636-46-46-46zm0 72c-14.337 0-26-11.664-26-26s11.663-26 26-26 26 11.664 26 26-11.663 26-26 26z"/><path id="XMLID_468_" d="m119.177 137.548c1.8 3.374 5.257 5.296 8.832 5.296 1.588 0 3.198-.379 4.697-1.178 4.873-2.599 6.717-8.657 4.117-13.53l-35.25-66.092c-2.6-4.873-8.656-6.718-13.529-4.117-4.873 2.599-6.717 8.656-4.117 13.529z"/><path id="XMLID_469_" d="m10.018 152.061 61.556 32.294c1.482.778 3.071 1.146 4.637 1.146 3.599 0 7.076-1.949 8.864-5.356 2.565-4.891.681-10.936-4.21-13.501l-61.556-32.294c-4.889-2.565-10.935-.68-13.501 4.209-2.565 4.892-.68 10.936 4.21 13.502z"/><path id="XMLID_492_" d="m379.294 141.665c1.499.799 3.109 1.178 4.697 1.178 3.574 0 7.033-1.922 8.832-5.296l35.25-66.092c2.6-4.873.756-10.931-4.117-13.529-4.875-2.601-10.932-.756-13.529 4.117l-35.25 66.092c-2.6 4.874-.756 10.931 4.117 13.53z"/><path id="XMLID_493_" d="m426.925 180.146c1.788 3.408 5.265 5.356 8.864 5.356 1.565 0 3.154-.369 4.637-1.146l61.556-32.294c4.891-2.566 6.775-8.61 4.21-13.501-2.565-4.89-8.609-6.776-13.501-4.209l-61.556 32.294c-4.891 2.564-6.776 8.609-4.21 13.5z"/><path id="XMLID_494_" d="m256.319 459.04c-2.63 0-5.21 1.07-7.069 2.93-1.86 1.86-2.931 4.44-2.931 7.07 0 2.64 1.07 5.21 2.931 7.07 1.859 1.87 4.439 2.93 7.069 2.93 2.631 0 5.2-1.06 7.07-2.93 1.86-1.86 2.93-4.43 2.93-7.07 0-2.63-1.069-5.21-2.93-7.07-1.859-1.86-4.439-2.93-7.07-2.93z"/></g></g></svg>